<svg width="34" height="26" viewBox="0 0 34 26" fill="none" xmlns="http://www.w3.org/2000/svg">
<path d="M28.8268 2.19588C28.8174 2.1775 28.8017 2.1631 28.7827 2.15526C26.5783 1.14013 24.252 0.416263 21.862 0.00177553C21.8403 -0.00227601 21.8179 0.000646821 21.7979 0.0101283C21.7779 0.0196098 21.7615 0.0351673 21.7508 0.0545882C21.4341 0.631633 21.1465 1.22435 20.8893 1.83049C18.313 1.43798 15.6925 1.43798 13.1163 1.83049C12.8573 1.22281 12.5652 0.629946 12.2411 0.0545882C12.23 0.0355893 12.2135 0.0203902 12.1936 0.0109703C12.1738 0.00155036 12.1516 -0.00165371 12.1299 0.00177553C9.73969 0.415393 7.41325 1.13931 5.20913 2.15531C5.19026 2.16334 5.17434 2.17705 5.16356 2.19455C0.75575 8.80123 -0.451717 15.2455 0.140625 21.6099C0.142291 21.6255 0.147066 21.6406 0.154665 21.6543C0.162264 21.668 0.172533 21.6801 0.18486 21.6897C2.75149 23.5971 5.6223 25.053 8.67477 25.9953C8.69627 26.0018 8.71922 26.0015 8.74055 25.9945C8.76188 25.9875 8.78055 25.9741 8.79406 25.9561C9.44967 25.0608 10.0306 24.1127 10.5309 23.1215C10.5378 23.1079 10.5417 23.093 10.5424 23.0778C10.5431 23.0625 10.5406 23.0473 10.5351 23.0331C10.5295 23.019 10.521 23.0061 10.5101 22.9955C10.4992 22.9848 10.4862 22.9766 10.472 22.9713C9.55592 22.6195 8.66906 22.1955 7.81974 21.7031C7.80431 21.694 7.79135 21.6812 7.78201 21.6659C7.77267 21.6506 7.76723 21.6332 7.76617 21.6152C7.76511 21.5973 7.76847 21.5794 7.77595 21.5631C7.78342 21.5467 7.79479 21.5325 7.80904 21.5217C7.98725 21.3876 8.16558 21.2482 8.33575 21.1075C8.35087 21.095 8.36917 21.0869 8.38858 21.0843C8.40799 21.0817 8.42774 21.0846 8.44562 21.0926C14.0099 23.6414 20.034 23.6414 25.5324 21.0926C25.5503 21.084 25.5703 21.0808 25.59 21.0832C25.6097 21.0856 25.6283 21.0935 25.6437 21.1061C25.8139 21.2469 25.9922 21.3876 26.1717 21.5217C26.186 21.5324 26.1975 21.5465 26.2051 21.5628C26.2127 21.5791 26.2162 21.5969 26.2153 21.6149C26.2143 21.6328 26.209 21.6502 26.1998 21.6656C26.1906 21.681 26.1777 21.6939 26.1623 21.7031C25.3149 22.1996 24.4273 22.6234 23.5088 22.97C23.4946 22.9754 23.4816 22.9839 23.4708 22.9947C23.46 23.0055 23.4516 23.0185 23.4461 23.0328C23.4407 23.0471 23.4383 23.0624 23.4391 23.0777C23.44 23.093 23.444 23.1079 23.451 23.1215C23.9597 24.1072 24.5398 25.0541 25.1865 25.9545C25.1996 25.973 25.2182 25.9869 25.2396 25.9942C25.261 26.0015 25.2842 26.0018 25.3058 25.9952C28.3637 25.056 31.2396 23.6 33.8094 21.6897C33.8219 21.6806 33.8324 21.6688 33.84 21.6553C33.8476 21.6418 33.8523 21.6267 33.8537 21.6113C34.5628 14.2533 32.6664 7.86187 28.8268 2.19588ZM11.3619 17.7346C9.68662 17.7346 8.30626 16.1916 8.30626 14.2967C8.30626 12.4017 9.65985 10.8585 11.3619 10.8585C13.0772 10.8585 14.4442 12.4151 14.4174 14.2965C14.4174 16.1916 13.0638 17.7346 11.3619 17.7346ZM22.6594 17.7346C20.9842 17.7346 19.6038 16.1916 19.6038 14.2967C19.6038 12.4017 20.9574 10.8585 22.6594 10.8585C24.3748 10.8585 25.7418 12.4151 25.715 14.2965C25.715 16.1916 24.3748 17.7346 22.6594 17.7346Z" fill="white"/>
</svg>
