<svg width="81" height="108" viewBox="0 0 81 108" fill="none" xmlns="http://www.w3.org/2000/svg">
<path d="M80.9923 63.0504C80.9923 70.1663 81.0096 77.2822 80.9923 84.4067C80.9493 97.1414 70.0011 107.992 57.2283 108C46.1338 108 35.0479 108 23.9534 108C10.8707 107.992 0 97.1672 0 84.1314C0 70.4244 0 56.7089 0 43.002C0 22.007 16.164 4.52272 37.148 2.79322C60.8432 0.8314 81.0612 19.5031 80.9923 43.2859C80.9751 49.8769 80.9923 56.468 80.9923 63.0676V63.0504ZM59.5178 67.5764V67.5075C59.9653 67.5075 60.4215 67.5075 60.8691 67.5075C66.128 67.4645 70.6122 64.2636 72.3509 59.3161C74.0292 54.532 72.523 48.6723 68.2453 45.8673C65.7665 44.241 64.9316 42.5631 64.5098 39.6462C62.6593 27.0493 52.6149 18.875 39.6957 18.918C27.4049 18.961 16.4395 29.665 16.2501 41.9178C16.2243 43.3289 15.7595 43.9571 14.5459 44.6024C9.49358 47.2526 7.02336 52.9143 8.40909 58.2749C9.8809 63.9453 14.4943 67.4903 20.4245 67.4989C21.6209 67.4989 22.8259 67.4559 24.0223 67.5247C26.5097 67.671 27.8782 68.9273 28.2914 71.3365C28.8078 74.3395 30.0989 75.6474 32.4916 75.5957C34.7897 75.5527 36.0119 74.262 36.5025 71.3709C36.8984 69.0821 38.5166 67.5591 40.5478 67.5764C42.5791 67.5936 44.137 69.108 44.5071 71.4398C44.9546 74.2448 46.2629 75.5871 48.5782 75.5957C50.9021 75.6043 52.2878 74.2534 52.6838 71.4828C53.0022 69.28 54.1642 67.8947 56.3762 67.585C57.409 67.4387 58.4677 67.5592 59.5178 67.5592V67.5764ZM40.4962 91.798C44.619 91.798 48.7417 91.8324 52.8559 91.798C57.2627 91.755 60.6453 88.3734 60.74 83.9593C60.7658 82.5396 60.7744 81.1112 60.74 79.6915C60.6797 77.4027 59.2079 75.785 57.0906 75.6215C54.8097 75.4409 53.0366 76.8348 52.6407 79.1236C52.1157 82.1868 50.8418 83.6151 48.6126 83.6409C46.3834 83.6667 45.0321 82.1868 44.5415 79.1838C44.1111 76.5594 41.6926 74.9332 39.2654 75.7592C37.3718 76.4046 36.5369 77.8587 36.3476 79.8636C36.1324 82.0835 34.5143 83.5635 32.5863 83.6581C30.5378 83.7528 28.8594 82.2814 28.4205 80.0098C28.3516 79.6398 28.3774 79.2612 28.3086 78.8913C27.8868 76.7746 26.088 75.4581 23.876 75.6388C21.8533 75.7936 20.3385 77.3769 20.2524 79.4936C20.1921 80.9133 20.2352 82.3416 20.2438 83.7614C20.2782 88.425 23.6522 91.7894 28.3516 91.8238C32.3969 91.8496 36.4423 91.8238 40.4876 91.8238L40.4962 91.798Z" fill="black"/>
<path d="M59.5177 67.5761C58.4676 67.5761 57.4004 67.4557 56.3761 67.6019C54.1641 67.9117 52.9936 69.297 52.6837 71.4998C52.2878 74.2704 50.8934 75.6213 48.5781 75.6127C46.2628 75.6041 44.9546 74.2704 44.507 71.4567C44.1369 69.1249 42.579 67.6019 40.5478 67.5933C38.5165 67.5761 36.8984 69.0991 36.5024 71.3879C36.0032 74.279 34.7896 75.5697 32.4916 75.6127C30.0902 75.6643 28.8077 74.3564 28.2913 71.3535C27.8782 68.9442 26.5097 67.688 24.0222 67.5417C22.8258 67.4729 21.6209 67.5159 20.4245 67.5159C14.4942 67.5073 9.88084 63.9622 8.40904 58.2919C7.53972 54.9361 4.92318 46.4521 6.75648 43.6729C7.85819 42.0036 12.6437 45.6089 14.5373 44.6108C15.7508 43.974 16.2242 43.3459 16.2414 41.9262C16.4308 29.6734 27.3962 18.9694 39.6871 18.9264C52.6062 18.8834 62.6507 27.0576 64.5012 39.6546C64.9315 42.5629 65.7664 44.2494 68.2366 45.8756C69.8462 46.9254 74.339 43.7761 75.1395 45.4712C76.4822 48.2935 73.3923 56.3301 72.3422 59.3244C70.6122 64.2634 66.1193 67.4643 60.8604 67.5159C60.4128 67.5159 59.9567 67.5159 59.5091 67.5159V67.5847L59.5177 67.5761ZM40.4961 59.2814C46.7965 59.2814 53.0882 59.2814 59.3886 59.2814C62.7626 59.2814 64.6045 57.9219 64.6303 55.418C64.6561 52.8711 62.8228 51.4599 59.4919 51.4599C46.7534 51.4599 34.0064 51.4599 21.268 51.4599C18.1522 51.4599 16.3017 52.9399 16.3533 55.418C16.405 57.8186 18.1952 59.2728 21.1561 59.2728C27.6028 59.2728 34.0494 59.2728 40.4961 59.2728V59.2814Z" fill="white"/>
<path d="M40.4962 91.7974C36.4508 91.7974 32.4055 91.8146 28.3602 91.7974C23.6608 91.7629 20.2868 88.3986 20.2524 83.735C20.2438 82.3152 20.2093 80.8869 20.261 79.4671C20.347 77.3504 21.8619 75.7672 23.8845 75.6123C26.0966 75.4402 27.8954 76.7567 28.3172 78.8648C28.386 79.2262 28.3602 79.6134 28.4291 79.9834C28.868 82.255 30.5464 83.7263 32.5949 83.6317C34.5229 83.5457 36.141 82.0571 36.3562 79.8371C36.5541 77.8323 37.3804 76.3781 39.274 75.7328C41.7011 74.9068 44.1111 76.533 44.5501 79.1574C45.0493 82.1689 46.392 83.6403 48.6212 83.6145C50.8504 83.5887 52.1243 82.1689 52.6493 79.0971C53.0366 76.8169 54.8097 75.4144 57.0992 75.5951C59.2165 75.7672 60.6883 77.3762 60.7485 79.665C60.783 81.0848 60.783 82.5131 60.7485 83.9329C60.6539 88.347 57.2799 91.7285 52.8645 91.7715C48.7417 91.8146 44.6189 91.7715 40.5048 91.7715L40.4962 91.7974Z" fill="white"/>
<path d="M40.4963 61.493C34.0496 61.493 27.6029 61.493 21.1562 61.493C18.1954 61.493 16.4051 60.0388 16.3535 57.6382C16.3018 55.1601 18.1523 53.6801 21.2681 53.6801C34.0065 53.6801 46.7536 53.6801 59.492 53.6801C62.8143 53.6801 64.6562 55.0912 64.6304 57.6382C64.6046 60.1421 62.7541 61.5016 59.3887 61.5016C53.0884 61.5016 46.7966 61.5016 40.4963 61.5016V61.493Z" fill="#ED1E79"/>
<path d="M40.4963 57.0521C34.0496 57.0521 27.6029 57.0521 21.1562 57.0521C18.1954 57.0521 16.4051 55.5979 16.3535 53.1973C16.3018 50.7192 18.1523 49.2392 21.2681 49.2392C34.0065 49.2392 46.7536 49.2392 59.492 49.2392C62.8143 49.2392 64.6562 50.6504 64.6304 53.1973C64.6046 55.7012 62.7541 57.0607 59.3887 57.0607C53.0884 57.0607 46.7966 57.0607 40.4963 57.0607V57.0521Z" fill="black"/>
<path d="M13.1602 61.4324C13.1602 60.5628 12.455 59.8578 11.5851 59.8578C10.7152 59.8578 10.01 60.5628 10.01 61.4324V73.1259C10.01 73.9956 10.7152 74.7005 11.5851 74.7005C12.455 74.7005 13.1602 73.9956 13.1602 73.1259V61.4324Z" fill="white"/>
<path d="M13.6079 71.9984C14.4778 71.9984 15.183 71.2935 15.183 70.4238C15.183 69.5542 14.4778 68.8492 13.6079 68.8492H9.56258C8.69268 68.8492 7.98749 69.5542 7.98749 70.4238C7.98749 71.2935 8.69268 71.9984 9.56258 71.9984H13.6079Z" fill="white"/>
<path d="M71.2062 61.4324C71.2062 60.5628 70.501 59.8578 69.6311 59.8578C68.7612 59.8578 68.056 60.5628 68.056 61.4324V73.1259C68.056 73.9956 68.7612 74.7005 69.6311 74.7005C70.501 74.7005 71.2062 73.9956 71.2062 73.1259V61.4324Z" fill="white"/>
<path d="M71.6623 71.9984C72.5322 71.9984 73.2374 71.2935 73.2374 70.4238C73.2374 69.5542 72.5322 68.8492 71.6623 68.8492H67.617C66.7471 68.8492 66.0419 69.5542 66.0419 70.4238C66.0419 71.2935 66.7471 71.9984 67.617 71.9984H71.6623Z" fill="white"/>
<path d="M40.4963 59.2728C34.0496 59.2728 27.6029 59.2728 21.1562 59.2728C18.1954 59.2728 16.4051 57.8186 16.3535 55.418C16.3018 52.9399 18.1523 51.4599 21.2681 51.4599C34.0065 51.4599 46.7536 51.4599 59.492 51.4599C62.8143 51.4599 64.6562 52.871 64.6304 55.418C64.6046 57.9219 62.7541 59.2814 59.3887 59.2814C53.0884 59.2814 46.7966 59.2814 40.4963 59.2814V59.2728Z" fill="#0000FF"/>
<path d="M9.51092 23.0224C9.51092 23.0224 3.2622 15.9839 2.1605 6.46735C1.07601 -2.91153 18.2471 16.3195 18.2471 16.3195L9.51092 23.0224Z" fill="black"/>
<path d="M25.5974 19.1328C25.5974 19.1328 19.3487 12.0943 18.247 2.57777C17.1625 -6.80111 34.3335 12.4299 34.3335 12.4299L25.5974 19.1328Z" fill="black"/>
<path d="M55.791 19.1328C55.791 19.1328 62.0397 12.0943 63.1414 2.57777C64.2259 -6.80111 47.0548 12.4299 47.0548 12.4299L55.791 19.1328Z" fill="black"/>
<path d="M71.3266 23.0224C71.3266 23.0224 77.5753 15.9839 78.677 6.46735C79.7615 -2.91153 62.5905 16.3195 62.5905 16.3195L71.3266 23.0224Z" fill="black"/>
</svg>
