<svg width="98" height="144" viewBox="0 0 98 144" fill="none" xmlns="http://www.w3.org/2000/svg">
<path d="M47.221 51.64C51.253 51.64 53.749 54.232 54.709 59.416C54.261 62.552 53.557 65.24 52.597 67.48V67.864C56.693 67.864 59.797 70.744 61.909 76.504L62.197 80.056C61.557 87.8 57.269 96.12 49.333 105.016C45.749 107.448 43.157 108.664 41.557 108.664C36.373 107.32 33.781 105.528 33.781 103.288C34.037 102.392 34.709 101.592 35.797 100.888H37.621C39.093 102.04 40.213 102.616 40.981 102.616H41.173C46.165 102.616 51.157 96.024 56.149 82.84L56.533 80.056V79.48C56.533 75.512 55.125 73.528 52.309 73.528C49.301 73.528 47.125 74.904 45.781 77.656C42.965 80.856 40.821 82.68 39.349 83.128C38.517 83.128 37.525 82.232 36.373 80.44C36.373 77.88 39.285 74.168 45.109 69.304C47.669 64.824 48.949 61.432 48.949 59.128C48.565 57.976 47.989 57.272 47.221 57.016C44.469 57.016 41.589 60.632 38.581 67.864L36.373 68.44C34.645 68.056 33.781 67.256 33.781 66.04C36.853 56.44 41.333 51.64 47.221 51.64Z" fill="white"/>
<path d="M45.5861 45.5793C29.5204 49.5942 13.2146 54.0321 4.79417 69.7842C1.92231 75.1566 2.00021 80.4623 2.00021 86.3863C2.00021 94.6893 6.42634 100.758 12.4931 106.216C19.291 112.331 29.9062 113.158 38.4149 115.091C43.4355 116.231 47.632 116.518 52.8815 116.518C58.7996 116.518 64.6609 117.167 70.0488 114.284C76.0262 111.085 79.3066 106.562 83.1184 101.126C85.2775 98.0477 88.1077 95.2047 89.886 91.879C92.0181 87.8915 93.2532 82.8748 94.3874 78.5352C95.417 74.5961 97.2316 68.6311 94.7599 64.8191C92.3926 61.1681 88.6123 58.3914 85.1363 55.8819C81.6488 53.3642 76.7539 50.8212 72.4082 50.1721C68.6543 49.6114 65.4968 48.0078 61.6669 47.7826C55.9142 47.4443 50.2319 47.2551 44.4685 47.2551C42.3895 47.2551 39.4869 47.8453 37.763 46.6965" stroke="white" stroke-width="3" stroke-linecap="round"/>
</svg>
