<svg width="98" height="120" viewBox="0 0 98 120" fill="none" xmlns="http://www.w3.org/2000/svg">
<path d="M38.9581 47.28C39.2781 45.9467 40.2381 45.28 41.8381 45.28C43.4381 45.28 44.2381 48.6933 44.2381 55.52L44.4781 59.84L43.7581 85.04C43.3848 86.6933 42.5581 87.52 41.2781 87.52C39.7315 86.9333 38.9581 86.1067 38.9581 85.04L39.7581 60.32L38.9581 47.28ZM51.38 47.28C51.7 45.9467 52.66 45.28 54.26 45.28C55.86 45.28 56.66 48.6933 56.66 55.52L56.9 59.84L56.18 85.04C55.8067 86.6933 54.98 87.52 53.7 87.52C52.1533 86.9333 51.38 86.1067 51.38 85.04L52.18 60.32L51.38 47.28Z" fill="white"/>
<path d="M45.5861 29.5791C29.5204 33.594 13.2146 38.0319 4.79417 53.784C1.92231 59.1564 2.00021 64.4621 2.00021 70.3861C2.00021 78.6891 6.42634 84.7575 12.4931 90.2155C19.291 96.3312 29.9062 97.1575 38.4149 99.0906C43.4355 100.231 47.632 100.518 52.8815 100.518C58.7996 100.518 64.6609 101.167 70.0488 98.2838C76.0262 95.085 79.3066 90.5616 83.1184 85.1262C85.2775 82.0475 88.1077 79.2045 89.886 75.8787C92.0181 71.8913 93.2532 66.8746 94.3874 62.535C95.417 58.5958 97.2316 52.6309 94.7599 48.8189C92.3926 45.1679 88.6123 42.3912 85.1363 39.8817C81.6488 37.364 76.7539 34.8209 72.4082 34.1718C68.6543 33.6111 65.4968 32.0076 61.6669 31.7824C55.9142 31.4441 50.2319 31.2548 44.4685 31.2548C42.3895 31.2548 39.4869 31.8451 37.763 30.6963" stroke="white" stroke-width="3" stroke-linecap="round"/>
</svg>
