<svg width="98" height="144" viewBox="0 0 98 144" fill="none" xmlns="http://www.w3.org/2000/svg">
<path d="M44.5068 56.536C44.8908 54.936 46.0428 54.136 47.9628 54.136C49.8828 54.136 50.8428 58.232 50.8428 66.424L51.1308 71.608L50.2668 101.848C49.8188 103.832 48.8268 104.824 47.2908 104.824C45.4348 104.12 44.5068 103.128 44.5068 101.848L45.4668 72.184L44.5068 56.536Z" fill="white"/>
<path d="M45.5861 45.5793C29.5204 49.5942 13.2146 54.0321 4.79417 69.7842C1.92231 75.1566 2.00021 80.4623 2.00021 86.3863C2.00021 94.6893 6.42634 100.758 12.4931 106.216C19.291 112.331 29.9062 113.158 38.4149 115.091C43.4355 116.231 47.632 116.518 52.8815 116.518C58.7996 116.518 64.6609 117.167 70.0488 114.284C76.0262 111.085 79.3066 106.562 83.1184 101.126C85.2775 98.0477 88.1077 95.2047 89.886 91.879C92.0181 87.8915 93.2532 82.8748 94.3874 78.5352C95.417 74.5961 97.2316 68.6311 94.7599 64.8191C92.3926 61.1681 88.6123 58.3914 85.1363 55.8819C81.6488 53.3642 76.7539 50.8212 72.4082 50.1721C68.6543 49.6114 65.4968 48.0078 61.6669 47.7826C55.9142 47.4443 50.2319 47.2551 44.4685 47.2551C42.3895 47.2551 39.4869 47.8453 37.763 46.6965" stroke="white" stroke-width="3" stroke-linecap="round"/>
</svg>
