<svg width="106" height="120" viewBox="0 0 106 120" fill="none" xmlns="http://www.w3.org/2000/svg">
<path d="M38.0206 47.28C38.3406 45.9467 39.3006 45.28 40.9006 45.28C42.5006 45.28 43.3006 48.6933 43.3006 55.52L43.5406 59.84L42.8206 85.04C42.4473 86.6933 41.6206 87.52 40.3406 87.52C38.794 86.9333 38.0206 86.1067 38.0206 85.04L38.8206 60.32L38.0206 47.28ZM56.7625 40C58.4158 37.2267 60.0692 35.84 61.7225 35.84C63.4292 35.84 64.6025 36.8267 65.2425 38.8L65.0825 39.84V40C71.8558 44.3733 75.2425 52.5333 75.2425 64.48C75.2425 76.4267 71.7492 84.3733 64.7625 88.32L62.0425 88.8C56.5492 88.8 52.7892 85.6267 50.7625 79.28C50.0692 76.4533 49.7225 73.7067 49.7225 71.04V70C49.7225 64.4533 51.0558 56.8 53.7225 47.04C52.4425 47.04 51.6158 46.1333 51.2425 44.32C51.2425 43.3067 53.0825 41.8667 56.7625 40ZM54.5225 69.52V71.52C54.5225 79.84 56.8692 84 61.5625 84H61.7225C66.0958 84 68.9492 78.7733 70.2825 68.32L70.5225 63.52C70.1492 52.9067 67.6692 46.56 63.0825 44.48L61.5625 44.32H60.2825C59.0025 45.6 57.4825 50.1067 55.7225 57.84C54.9225 62.1067 54.5225 66 54.5225 69.52Z" fill="white"/>
<path d="M53.5861 27.5793C37.5204 31.5942 11.9205 31.067 3.50002 46.8191C0.62816 52.1915 3.5 67.955 3.5 73.879C3.5 82.182 10.4332 85.0421 16.5 90.5C23.2979 96.6157 23.4913 101.567 32 103.5C37.0206 104.641 48.3366 109 53.5861 109C59.5042 109 72.6608 99.1673 78.0488 96.284C84.0262 93.0852 87.3065 88.5618 91.1184 83.1265C93.2775 80.0477 96.1077 77.2047 97.886 73.879C100.018 69.8915 101.253 64.8748 102.387 60.5352C103.417 56.5961 105.232 50.6311 102.76 46.8191C100.393 43.1681 96.6123 40.3914 93.1362 37.8819C89.6488 35.3642 86 32.1721 82 29.5C78.2462 28.9393 75.3299 24.7252 71.5 24.5C66 21.5 63.2634 19.5 57.5 19.5C55.421 19.5 18.2239 33.3209 16.5 32.1721" stroke="white" stroke-width="3" stroke-linecap="round"/>
</svg>
