<svg width="98" height="120" viewBox="0 0 98 120" fill="none" xmlns="http://www.w3.org/2000/svg">
<path d="M61.4577 41.6C62.5243 41.6 63.191 42.3733 63.4577 43.92V44.4C63.4577 45.3067 62.3643 49.2 60.1777 56.08C58.3643 64.6667 57.4577 73.0133 57.4577 81.12C57.4577 84.96 57.6977 88.6133 58.1777 92.08C57.591 93.6267 56.7643 94.4 55.6977 94.4C53.671 94.4 52.6577 90.2933 52.6577 82.08V80.64C52.6577 76.5333 53.0043 71.36 53.6977 65.12C53.431 65.12 52.2043 66.4533 50.0177 69.12C45.8577 72.96 42.5777 74.88 40.1777 74.88C37.351 74.88 35.191 72.8 33.6977 68.64V66.88C33.6977 60.96 38.2043 54.3733 47.2177 47.12C51.3243 44.4533 54.311 43.12 56.1777 43.12L57.4577 43.44H58.9777C58.9777 42.4267 59.8043 41.8133 61.4577 41.6ZM38.4977 66.08V67.92C38.4977 68.7733 38.8977 69.44 39.6977 69.92H40.4977C44.551 69.92 49.8843 63.5733 56.4977 50.88C56.9777 49.9733 57.2177 49.1467 57.2177 48.4V48.08H56.0177C51.911 48.08 46.7377 52.3467 40.4977 60.88C39.1643 63.3867 38.4977 65.12 38.4977 66.08Z" fill="white"/>
<path d="M45.5861 33.5791C29.5204 37.594 13.2146 42.0319 4.79417 57.784C1.92231 63.1564 2.00021 68.4621 2.00021 74.3861C2.00021 82.6891 6.42634 88.7575 12.4931 94.2155C19.291 100.331 29.9062 101.158 38.4149 103.091C43.4355 104.231 47.632 104.518 52.8815 104.518C58.7996 104.518 64.6609 105.167 70.0488 102.284C76.0262 99.085 79.3066 94.5616 83.1184 89.1262C85.2775 86.0475 88.1077 83.2045 89.886 79.8787C92.0181 75.8913 93.2532 70.8746 94.3874 66.535C95.417 62.5958 97.2316 56.6309 94.7599 52.8189C92.3926 49.1679 88.6123 46.3912 85.1363 43.8817C81.6488 41.364 76.7539 38.8209 72.4082 38.1718C68.6543 37.6111 65.4968 36.0076 61.6669 35.7824C55.9142 35.4441 50.2319 35.2548 44.4685 35.2548C42.3895 35.2548 39.4869 35.8451 37.763 34.6963" stroke="white" stroke-width="3" stroke-linecap="round"/>
</svg>
