<svg width="1956" height="213" viewBox="0 0 1956 213" fill="none" xmlns="http://www.w3.org/2000/svg">
<path d="M168.766 66.0186C162.929 53.0184 155.501 41.8754 145.684 32.059C136.133 22.5078 124.725 14.8139 111.99 9.24239C98.9899 3.67088 85.4591 0.752487 70.8671 0.752487H0.2948L35.5809 36.3039H70.8671C80.4182 36.3039 89.7041 38.1611 98.194 41.6101C106.684 45.3245 114.378 50.6306 120.745 56.9981C127.378 63.6308 132.419 71.0595 136.133 79.5494C139.848 88.3046 141.705 97.3251 141.705 106.876C141.705 116.427 139.848 125.448 136.133 134.203C132.419 142.693 127.378 150.122 121.011 156.754C114.643 163.387 106.949 168.428 98.4593 172.142C89.9694 175.591 80.6835 177.449 70.8671 177.449H35.5809L0.2948 213H70.8671C85.4591 213 99.2552 210.082 111.99 204.51C124.99 198.939 136.399 191.245 145.95 181.693C155.501 171.877 162.929 160.734 168.766 147.734C174.338 134.999 176.991 121.468 176.991 106.876C176.991 92.2842 174.338 78.7534 168.766 66.0186ZM379.708 0.752487C350.259 0.752487 325.32 11.3649 304.891 32.059C284.197 52.7531 273.584 77.6922 273.584 106.876C273.584 136.326 284.197 160.999 304.891 181.693C325.585 202.388 350.259 213 379.708 213C409.157 213 433.831 202.388 454.525 181.693C475.485 161.265 486.097 136.326 486.097 106.876C486.097 77.6922 475.485 52.7531 454.525 32.059C433.831 11.3649 409.157 0.752487 379.708 0.752487ZM379.708 36.3039C399.076 36.3039 415.79 43.202 429.586 56.9981C443.382 70.7942 450.28 87.5087 450.28 106.876C450.28 126.244 443.648 142.958 429.586 157.02C415.79 170.816 399.076 177.449 379.708 177.449C360.34 177.449 343.361 170.816 329.564 157.02C315.768 143.224 309.136 126.244 309.136 106.876C309.136 87.5087 315.768 70.7942 329.564 56.9981C343.626 42.9367 360.34 36.3039 379.708 36.3039ZM565.617 121.734L657.414 213L565.617 121.734ZM657.414 0.752487L565.617 92.2842L657.414 0.752487ZM707.292 0.752487H657.414L565.617 92.2842L550.76 107.142L565.617 121.734L657.414 213H707.292L601.169 106.876L707.292 0.752487ZM831.978 0.752487C802.528 0.752487 777.589 11.3649 757.16 32.059C736.466 52.7531 725.854 77.6922 725.854 106.876C725.854 136.326 736.466 160.999 757.16 181.693C777.854 202.388 802.528 213 831.978 213C861.427 213 886.101 202.388 906.795 181.693C927.754 161.265 938.367 136.326 938.367 106.876C938.367 77.6922 927.754 52.7531 906.795 32.059C886.101 11.3649 861.427 0.752487 831.978 0.752487ZM831.978 36.3039C851.345 36.3039 868.06 43.202 881.856 56.9981C895.652 70.7942 902.55 87.5087 902.55 106.876C902.55 126.244 895.917 142.958 881.856 157.02C868.06 170.816 851.345 177.449 831.978 177.449C812.61 177.449 795.63 170.816 781.834 157.02C768.038 143.224 761.405 126.244 761.405 106.876C761.405 87.5087 768.038 70.7942 781.834 56.9981C795.895 42.9367 812.61 36.3039 831.978 36.3039ZM972.457 0.752487L1078.58 213L1098.48 173.469L1011.99 0.752487H972.457ZM1142.63 210.082V213H1284.04V177.449H1177.91L1142.63 210.082ZM1142.63 0.752487L1177.91 36.3039H1284.04V0.752487H1142.63ZM1142.63 89.3658V124.652H1177.91H1284.04V89.3658H1177.91H1142.63ZM1484.75 111.387C1493.24 99.4476 1497.22 86.1821 1497.22 71.3248C1497.22 51.9572 1490.32 35.508 1476.53 21.4466C1462.73 7.65052 1446.02 0.752487 1426.65 0.752487H1333.53L1351.83 32.3243L1355.81 36.3039H1426.65C1436.2 36.3039 1444.43 39.753 1451.32 46.651C1458.49 53.5491 1461.94 61.7736 1461.94 71.3248C1461.94 81.1412 1458.49 89.6311 1451.32 96.5292C1444.43 103.427 1436.2 106.876 1426.65 106.876L1395.08 106.611L1456.63 213H1497.22L1453.71 136.856C1466.18 131.815 1476.53 123.325 1484.75 111.387ZM1703.03 124.652C1710.46 124.652 1716.56 127.305 1721.87 132.611C1726.91 137.917 1729.83 144.02 1729.83 151.183C1729.83 154.897 1729.03 158.346 1727.71 161.53C1726.38 164.979 1724.52 167.632 1722.14 170.02C1719.75 172.408 1716.83 174.265 1713.38 175.591C1710.2 176.918 1706.75 177.449 1703.03 177.449V213C1720.28 213 1734.87 206.898 1746.81 194.959C1759.01 182.755 1765.12 168.163 1765.12 151.183C1765.12 134.203 1759.01 119.611 1746.81 107.407C1734.87 95.4679 1720.28 89.3658 1703.03 89.3658H1650.24C1642.54 89.3658 1636.44 86.7127 1631.14 81.4065C1626.09 76.1003 1623.71 69.9982 1623.71 62.5696C1623.71 59.1205 1624.24 55.6715 1625.56 52.4878C1626.89 49.3041 1628.75 46.3857 1631.14 43.9979C1633.79 41.3448 1636.44 39.4876 1639.89 38.1611C1643.07 36.8346 1646.52 36.3039 1650.24 36.3039V0.752487C1632.99 0.752487 1618.4 6.8546 1606.46 19.0588C1594.52 31.2631 1588.42 45.5898 1588.42 62.5696C1588.42 79.8147 1594.52 94.4067 1606.46 106.611C1618.4 118.55 1632.99 124.652 1650.24 124.652H1703.03ZM1814.04 210.082V213H1955.45V177.449H1849.32L1814.04 210.082ZM1814.04 0.752487L1849.32 36.3039H1955.45V0.752487H1814.04ZM1814.04 89.3658V124.652H1849.32H1955.45V89.3658H1849.32H1814.04Z" fill="white"/>
</svg>
