<svg width="106" height="120" viewBox="0 0 106 120" fill="none" xmlns="http://www.w3.org/2000/svg">
<path d="M62.2239 32.64C62.8639 32.64 63.6106 33.2267 64.4639 34.4V35.12C64.4639 35.92 64.0373 36.5867 63.1839 37.12C61.5306 38.56 60.7039 48.56 60.7039 67.12V70.4H61.6639C64.3839 70.4 67.3973 68.9067 70.7039 65.92H71.0239C72.6773 66.2933 73.5039 67.12 73.5039 68.4C72.1173 71.0133 69.8506 72.9067 66.7039 74.08C64.8373 74.7733 63.1039 75.12 61.5039 75.12H61.0239L61.5039 102.64C61.5039 103.707 60.7306 104.533 59.1839 105.12C57.7439 105.12 56.9173 104.213 56.7039 102.4L56.2239 74.64C49.5573 72.6133 45.8773 71.6 45.1839 71.6H44.2239C43.6906 71.92 43.0239 72.8533 42.2239 74.4L40.7039 75.44C39.0506 74.8 38.2239 73.7867 38.2239 72.4C38.2239 71.8133 39.3706 69.3867 41.6639 65.12C44.3306 57.0133 45.6639 51.3333 45.6639 48.08V45.12C45.6639 44.3733 45.1039 42.96 43.9839 40.88C44.3573 39.2267 45.1839 38.4 46.4639 38.4C49.2906 39.6267 50.7039 42.4533 50.7039 46.88C50.7039 49.9733 49.2106 56.64 46.2239 66.88L55.9839 69.6V68.88C55.9839 45.36 57.3973 33.6 60.2239 33.6C60.2239 33.28 60.8906 32.96 62.2239 32.64Z" fill="white"/>
<path d="M53.5861 32.5793C37.5204 36.5942 11.9205 36.067 3.50002 51.8191C0.62816 57.1915 3.5 72.955 3.5 78.879C3.5 87.182 10.4332 90.0421 16.5 95.5C23.2979 101.616 23.4913 106.567 32 108.5C37.0206 109.641 48.3366 114 53.5861 114C59.5042 114 72.6608 104.167 78.0488 101.284C84.0262 98.0852 87.3065 93.5618 91.1184 88.1265C93.2775 85.0477 96.1077 82.2047 97.886 78.879C100.018 74.8915 101.253 69.8748 102.387 65.5352C103.417 61.5961 105.232 55.6311 102.76 51.8191C100.393 48.1681 96.6123 45.3914 93.1362 42.8819C89.6488 40.3642 86 37.1721 82 34.5C78.2462 33.9393 75.3299 29.7252 71.5 29.5C66 26.5 63.2634 24.5 57.5 24.5C55.421 24.5 18.2239 38.3209 16.5 37.1721" stroke="white" stroke-width="3" stroke-linecap="round"/>
</svg>
