<svg width="98" height="120" viewBox="0 0 98 120" fill="none" xmlns="http://www.w3.org/2000/svg">
<path d="M60.5667 37.6H61.0467C62.5401 38.1333 63.2867 38.96 63.2867 40.08C63.0201 41.2533 61.4467 43.7067 58.5667 47.44C56.7001 50.7467 54.0334 62.56 50.5667 82.88L48.5667 93.12L46.8067 94.4C45.1001 93.8133 44.2467 93.04 44.2467 92.08C44.2467 89.68 46.7534 76.3467 51.7667 52.08H51.6067C46.5401 54.2133 42.7001 55.3333 40.0867 55.44C34.8601 54.6933 32.2467 53.1733 32.2467 50.88C32.2467 49.4933 33.5801 48.6667 36.2467 48.4L39.2867 50.64H40.0867C45.2601 50.64 50.5934 47.9733 56.0867 42.64C56.4067 41.3067 57.9001 39.6267 60.5667 37.6Z" fill="white"/>
<path d="M45.5861 33.5793C29.5204 37.5942 13.2146 42.0321 4.79417 57.7842C1.92231 63.1566 2.00021 68.4623 2.00021 74.3863C2.00021 82.6893 6.42634 88.7578 12.4931 94.2157C19.291 100.331 29.9062 101.158 38.4149 103.091C43.4355 104.231 47.632 104.518 52.8815 104.518C58.7996 104.518 64.6609 105.167 70.0488 102.284C76.0262 99.0852 79.3066 94.5618 83.1184 89.1265C85.2775 86.0477 88.1077 83.2047 89.886 79.879C92.0181 75.8915 93.2532 70.8748 94.3874 66.5352C95.417 62.5961 97.2316 56.6311 94.7599 52.8191C92.3926 49.1681 88.6123 46.3914 85.1363 43.8819C81.6488 41.3642 76.7539 38.8212 72.4082 38.1721C68.6543 37.6114 65.4968 36.0078 61.6669 35.7826C55.9142 35.4443 50.2319 35.2551 44.4685 35.2551C42.3895 35.2551 39.4869 35.8453 37.763 34.6965" stroke="white" stroke-width="3" stroke-linecap="round"/>
</svg>
