<svg width="98" height="144" viewBox="0 0 98 144" fill="none" xmlns="http://www.w3.org/2000/svg">
<path d="M51.6685 60.184H52.2445C56.4045 60.184 58.4845 61.272 58.4845 63.448C58.2925 64.344 57.6205 65.24 56.4685 66.136L51.8605 65.848H51.2845C48.2125 65.848 43.4125 66.744 36.8845 68.536L38.4205 79.96H38.9965C44.4365 75.992 48.8525 74.008 52.2445 74.008C58.2605 74.008 61.8445 78.008 62.9965 86.008V86.584C62.9965 93.368 58.4205 98.552 49.2685 102.136L44.4685 103C39.4125 102.424 36.8845 101.24 36.8845 99.448C37.6525 97.4 38.7725 96.376 40.2445 96.376L43.5085 97.336H45.9085C49.8125 97.336 53.3325 94.936 56.4685 90.136C56.9805 88.984 57.2365 87.992 57.2365 87.16V85.336C56.7885 81.496 54.9965 79.576 51.8605 79.576H51.6685C47.7005 79.576 42.9645 83 37.4605 89.848H36.8845C34.3245 89.848 33.0445 86.552 33.0445 79.96L30.6445 65.56C30.6445 63.576 33.2365 62.584 38.4205 62.584C44.4365 60.984 48.8525 60.184 51.6685 60.184Z" fill="white"/>
<path d="M45.5861 45.5793C29.5204 49.5942 13.2146 54.0321 4.79417 69.7842C1.92231 75.1566 2.00021 80.4623 2.00021 86.3863C2.00021 94.6893 6.42634 100.758 12.4931 106.216C19.291 112.331 29.9062 113.158 38.4149 115.091C43.4355 116.231 47.632 116.518 52.8815 116.518C58.7996 116.518 64.6609 117.167 70.0488 114.284C76.0262 111.085 79.3066 106.562 83.1184 101.126C85.2775 98.0477 88.1077 95.2047 89.886 91.879C92.0181 87.8915 93.2532 82.8748 94.3874 78.5352C95.417 74.5961 97.2316 68.6311 94.7599 64.8191C92.3926 61.1681 88.6123 58.3914 85.1363 55.8819C81.6488 53.3642 76.7539 50.8212 72.4082 50.1721C68.6543 49.6114 65.4968 48.0078 61.6669 47.7826C55.9142 47.4443 50.2319 47.2551 44.4685 47.2551C42.3895 47.2551 39.4869 47.8453 37.763 46.6965" stroke="white" stroke-width="3" stroke-linecap="round"/>
</svg>
