<svg width="90" height="105" viewBox="0 0 90 105" fill="none" xmlns="http://www.w3.org/2000/svg">
<path d="M30.0073 41.12C30.2873 39.9533 31.1273 39.37 32.5273 39.37C33.9273 39.37 34.6273 42.3567 34.6273 48.33L34.8373 52.11L34.2073 74.16C33.8806 75.6067 33.1573 76.33 32.0373 76.33C30.684 75.8167 30.0073 75.0933 30.0073 74.16L30.7073 52.53L30.0073 41.12ZM51.4464 37.2C55.0398 37.2 57.1398 39.7433 57.7464 44.83C57.7464 49.5433 54.0598 58.6667 46.6864 72.2V72.62C48.5998 72.62 52.6831 70.94 58.9364 67.58H59.0764C60.0098 67.58 60.7331 68.2567 61.2464 69.61C61.2464 71.99 54.8298 74.9067 41.9964 78.36C41.2498 78.36 40.6198 77.6833 40.1064 76.33C41.9264 72.1767 45.4731 65.1767 50.7464 55.33C52.5198 50.57 53.4064 47.35 53.4064 45.67V43.5C53.4064 42.5667 52.9164 41.8433 51.9364 41.33H51.0264C49.2064 41.33 47.4564 43.5233 45.7764 47.91L45.9864 48.75C45.9864 49.6367 45.3331 50.36 44.0264 50.92C42.2998 50.5933 41.4364 49.73 41.4364 48.33C41.4364 45.67 43.4664 42.4033 47.5264 38.53C48.6931 37.6433 49.9998 37.2 51.4464 37.2Z" fill="white"/>
<path d="M45.4008 26.9509C31.8254 30.4051 10.1937 29.9515 3.07854 43.5036C0.651841 48.1257 3.07852 61.6875 3.07852 66.7841C3.07852 73.9275 8.93704 76.3881 14.0634 81.0838C19.8075 86.3454 19.971 90.6051 27.1607 92.2682C31.4031 93.2495 40.965 97 45.4008 97C50.4015 97 61.5187 88.5406 66.0715 86.06C71.1224 83.308 73.8942 79.4163 77.1152 74.7401C78.9396 72.0913 81.3311 69.6454 82.8337 66.7841C84.6353 63.3536 85.679 59.0376 86.6374 55.3041C87.5073 51.915 89.0407 46.7832 86.9522 43.5036C84.9518 40.3625 81.7575 37.9736 78.8202 35.8146C75.8734 33.6485 72.7902 30.9022 69.4103 28.6034C66.2383 28.121 63.7741 24.4954 60.5379 24.3017C55.8904 21.7207 53.578 20 48.708 20C46.9512 20 15.5201 31.8906 14.0634 30.9022" stroke="white" stroke-width="3" stroke-linecap="round"/>
</svg>
