<svg width="106" height="144" viewBox="0 0 106 144" fill="none" xmlns="http://www.w3.org/2000/svg">
<path d="M52.5979 57.88C54.3899 58.52 55.2859 59.512 55.2859 60.856L51.3499 67.288C49.6219 72.792 48.7579 78.584 48.7579 84.664V88.216H49.5259C53.3019 83.416 57.2379 81.016 61.3339 81.016C67.4779 81.976 70.5499 84.984 70.5499 90.04V90.616C70.5499 97.016 66.8699 102.52 59.5099 107.128L54.9979 107.704C48.1499 107.704 44.1499 101.112 42.9979 87.928V84.088C42.9979 73.72 45.1739 65.592 49.5259 59.704C50.7419 58.488 51.7659 57.88 52.5979 57.88ZM51.1579 98.68V99.064C52.1179 101.048 53.4939 102.04 55.2859 102.04H55.9579C59.9899 102.04 62.9659 98.328 64.8859 90.904V90.04C64.8859 87.992 63.7019 86.872 61.3339 86.68C56.6619 86.68 53.2699 90.68 51.1579 98.68Z" fill="white"/>
<path d="M53.5861 45.5793C37.5204 49.5942 11.9205 49.067 3.50002 64.8191C0.62816 70.1915 3.5 85.955 3.5 91.879C3.5 100.182 10.4332 103.042 16.5 108.5C23.2979 114.616 23.4913 119.567 32 121.5C37.0206 122.641 48.3366 127 53.5861 127C59.5042 127 72.6608 117.167 78.0488 114.284C84.0262 111.085 87.3065 106.562 91.1184 101.126C93.2775 98.0477 96.1077 95.2047 97.886 91.879C100.018 87.8915 101.253 82.8748 102.387 78.5352C103.417 74.5961 105.232 68.6311 102.76 64.8191C100.393 61.1681 96.6123 58.3914 93.1362 55.8819C89.6488 53.3642 86 50.1721 82 47.5C78.2462 46.9393 75.3299 42.7252 71.5 42.5C66 39.5 63.2634 37.5 57.5 37.5C55.421 37.5 18.2239 51.3209 16.5 50.1721" stroke="white" stroke-width="3" stroke-linecap="round"/>
</svg>
