<svg width="106" height="144" viewBox="0 0 106 144" fill="none" xmlns="http://www.w3.org/2000/svg">
<path d="M57.2059 51.16C62.1339 51.16 65.0139 54.648 65.8459 61.624C65.8459 68.088 60.7899 80.6 50.6779 99.16V99.736C53.3019 99.736 58.9019 97.432 67.4779 92.824H67.6699C68.9499 92.824 69.9419 93.752 70.6459 95.608C70.6459 98.872 61.8459 102.872 44.2459 107.608C43.2219 107.608 42.3579 106.68 41.6539 104.824C44.1499 99.128 49.0139 89.528 56.2459 76.024C58.6779 69.496 59.8939 65.08 59.8939 62.776V59.8C59.8939 58.52 59.2219 57.528 57.8779 56.824H56.6299C54.1339 56.824 51.7339 59.832 49.4299 65.848L49.7179 67C49.7179 68.216 48.8219 69.208 47.0299 69.976C44.6619 69.528 43.4779 68.344 43.4779 66.424C43.4779 62.776 46.2619 58.296 51.8299 52.984C53.4299 51.768 55.2219 51.16 57.2059 51.16Z" fill="white"/>
<path d="M53.5861 45.5793C37.5204 49.5942 11.9205 49.067 3.50002 64.8191C0.62816 70.1915 3.5 85.955 3.5 91.879C3.5 100.182 10.4332 103.042 16.5 108.5C23.2979 114.616 23.4913 119.567 32 121.5C37.0206 122.641 48.3366 127 53.5861 127C59.5042 127 72.6608 117.167 78.0488 114.284C84.0262 111.085 87.3065 106.562 91.1184 101.126C93.2775 98.0477 96.1077 95.2047 97.886 91.879C100.018 87.8915 101.253 82.8748 102.387 78.5352C103.417 74.5961 105.232 68.6311 102.76 64.8191C100.393 61.1681 96.6123 58.3914 93.1362 55.8819C89.6488 53.3642 86 50.1721 82 47.5C78.2462 46.9393 75.3299 42.7252 71.5 42.5C66 39.5 63.2634 37.5 57.5 37.5C55.421 37.5 18.2239 51.3209 16.5 50.1721" stroke="white" stroke-width="3" stroke-linecap="round"/>
</svg>
