<svg width="106" height="144" viewBox="0 0 106 144" fill="none" xmlns="http://www.w3.org/2000/svg">
<path d="M67.701 51.928C69.493 51.928 70.549 53.24 70.869 55.864C70.869 59.448 66.677 67.736 58.293 80.728C58.293 81.112 60.085 82.808 63.669 85.816C66.485 89.208 67.893 92.824 67.893 96.664C67.893 102.872 64.021 107.736 56.277 111.256H54.741C50.133 111.256 47.317 107.992 46.293 101.464V100.216C46.293 96.696 47.829 90.712 50.901 82.264C45.013 77.464 42.069 72.856 42.069 68.44V68.056C42.069 61.912 46.069 57.336 54.069 54.328L57.141 54.04C59.573 54.04 61.685 55.032 63.477 57.016V57.88C63.477 59.16 62.549 60.152 60.693 60.856C58.965 60.088 57.685 59.704 56.853 59.704H56.277C50.645 61.112 47.829 63.832 47.829 67.864V68.728C47.829 71.8 49.845 74.584 53.877 77.08C61.493 65.624 65.301 58.744 65.301 56.44L64.629 55.864V54.616C64.629 53.016 65.653 52.12 67.701 51.928ZM55.893 86.488H55.701C53.269 92.12 52.053 96.792 52.053 100.504V102.04C52.053 103.704 52.725 104.92 54.069 105.688H54.741C57.557 105.688 59.957 103.288 61.941 98.488L62.229 96.856V95.416C62.229 92.536 60.117 89.56 55.893 86.488Z" fill="white"/>
<path d="M53.5861 45.5793C37.5204 49.5942 11.9205 49.067 3.50002 64.8191C0.62816 70.1915 3.5 85.955 3.5 91.879C3.5 100.182 10.4332 103.042 16.5 108.5C23.2979 114.616 23.4913 119.567 32 121.5C37.0206 122.641 48.3366 127 53.5861 127C59.5042 127 72.6608 117.167 78.0488 114.284C84.0262 111.085 87.3065 106.562 91.1184 101.126C93.2775 98.0477 96.1077 95.2047 97.886 91.879C100.018 87.8915 101.253 82.8748 102.387 78.5352C103.417 74.5961 105.232 68.6311 102.76 64.8191C100.393 61.1681 96.6123 58.3914 93.1362 55.8819C89.6488 53.3642 86 50.1721 82 47.5C78.2462 46.9393 75.3299 42.7252 71.5 42.5C66 39.5 63.2634 37.5 57.5 37.5C55.421 37.5 18.2239 51.3209 16.5 50.1721" stroke="white" stroke-width="3" stroke-linecap="round"/>
</svg>
