<svg width="34" height="34" viewBox="0 0 34 34" fill="none" xmlns="http://www.w3.org/2000/svg">
<path fill-rule="evenodd" clip-rule="evenodd" d="M17.0309 0.0610352C26.3962 0.0610352 33.9997 7.6642 33.9997 17.0295C33.9997 26.3947 26.3962 33.9982 17.0309 33.9982C7.66567 33.9982 0.0625 26.3947 0.0625 17.0295C0.0625 7.6642 7.66567 0.0610352 17.0309 0.0610352ZM21.6661 12.3547L21.7562 12.4703C21.8009 12.5281 21.8446 12.5845 21.8831 12.6361C21.9175 12.7049 21.9863 12.7737 22.0207 12.8769C22.0809 12.9673 22.1346 13.0574 22.1872 13.1479L22.2326 13.225C22.2852 13.3154 22.3389 13.4059 22.3991 13.496C22.4335 13.5992 22.5022 13.7024 22.5366 13.8055C22.6742 14.0807 22.7774 14.3559 22.8118 14.6654C22.8462 14.7342 22.8462 14.803 22.8462 14.8374C22.8806 14.9062 22.8806 15.0094 22.8806 15.1126C22.915 15.4221 22.8806 15.6973 22.8462 16.0069C22.8335 16.0585 22.8204 16.1052 22.8077 16.1506L22.7819 16.2415C22.7688 16.2869 22.7561 16.3336 22.743 16.3852C22.7086 16.4884 22.6742 16.626 22.6054 16.7636C22.5022 17.0043 22.3647 17.2451 22.2271 17.4859C22.1927 17.5547 22.1239 17.6579 22.0551 17.7611C21.9863 17.8642 21.9175 17.933 21.8831 18.0362C21.8143 18.1394 21.7111 18.2426 21.6424 18.3458C21.5736 18.449 21.5048 18.5522 21.4016 18.6553C21.2984 18.7929 21.1608 18.9305 21.0576 19.0681C20.9888 19.1369 20.92 19.2401 20.8169 19.3089C20.7481 19.3777 20.6793 19.4808 20.5761 19.5496C20.4729 19.6528 20.3697 19.756 20.2665 19.8248L20.0602 19.9968C20.0258 20.0312 19.9914 20.0312 19.957 20.0312H18.4436V21.9573H20.3353C20.7481 21.9573 21.1608 21.8197 21.4704 21.5446C21.5736 21.4414 22.0551 21.0286 22.6398 20.4095C22.6742 20.3751 22.6742 20.3751 22.7086 20.3751L27.9368 18.8617C28.1431 18.7585 28.2119 18.8273 28.2119 18.9305V20.0312C28.2119 20.1 28.1775 20.1344 28.1087 20.1688C27.7648 20.3063 26.5609 20.8567 26.0794 21.5446C24.8068 23.2988 23.8437 25.8096 21.7111 25.8096H12.7339C9.56947 25.8096 6.98979 23.23 6.98979 20.0312V19.928C6.98979 19.8592 7.05858 19.7904 7.12737 19.7904H12.1835C12.2867 19.7904 12.3555 19.8936 12.3555 19.9624C12.3211 20.2719 12.3899 20.6159 12.5275 20.9255C12.8371 21.5446 13.4562 21.8885 14.1097 21.8885H16.5862V19.9624H14.1441C14.0065 19.9624 13.9377 19.8248 14.0065 19.7216C14.0409 19.6872 14.0753 19.6528 14.1097 19.584C14.3505 19.2401 14.66 18.7585 15.004 18.1738C15.2448 17.7954 15.4511 17.3483 15.6231 16.9356C15.6575 16.8668 15.6919 16.798 15.7263 16.6948C15.7607 16.5572 15.8295 16.4196 15.8639 16.3164C15.8983 16.2132 15.9327 16.1101 15.9671 16.0069C16.0359 15.6629 16.0703 15.2846 16.0703 14.8718C16.0703 14.7342 16.0703 14.5623 16.0359 14.3903C16.0359 14.3149 16.0293 14.2396 16.0218 14.1646L16.0156 14.1C16.008 14.0246 16.0015 13.9497 16.0015 13.8743C16.0015 13.7368 15.9671 13.5648 15.9327 13.4272C15.8983 13.1864 15.8639 12.9801 15.7951 12.7393L15.7607 12.6705C15.7263 12.5329 15.6919 12.3609 15.6231 12.2233C15.4855 11.7418 15.3135 11.2603 15.1416 10.8475C15.0728 10.6755 15.004 10.5036 14.9352 10.3316C14.832 10.0908 14.7288 9.85005 14.6256 9.64367C14.5912 9.54049 14.5224 9.47169 14.4881 9.36851C14.4537 9.26532 14.3849 9.16213 14.3505 9.05895C14.3161 8.99015 14.2817 8.92136 14.2473 8.85257L13.9377 8.30224C13.9033 8.23345 13.9721 8.13026 14.0409 8.16466L15.9327 8.68059L16.1734 8.74938L16.4486 8.81818L16.5518 8.85257V7.71751C16.5518 7.16718 16.9989 6.72004 17.5149 6.72004C17.79 6.72004 18.0308 6.82323 18.2028 6.9952C18.3748 7.16718 18.4779 7.40795 18.4779 7.68312V9.33411L18.6843 9.4029C18.6843 9.4029 18.7187 9.4029 18.7187 9.4373C18.7531 9.47169 18.8219 9.54049 18.9251 9.60928C18.9939 9.67807 19.0627 9.74686 19.1659 9.81565C19.3378 9.95323 19.5786 10.1596 19.8194 10.366C19.8882 10.4348 19.957 10.4692 19.9914 10.538C20.3009 10.8131 20.6449 11.1571 20.9888 11.5354C21.092 11.6386 21.1608 11.7418 21.264 11.845C21.3672 11.9482 21.436 12.0858 21.5392 12.189C21.578 12.2405 21.6214 12.297 21.6661 12.3547ZM8.29683 17.6235L8.36562 17.5203L12.8371 10.538C12.9058 10.4348 13.0434 10.4348 13.1122 10.5724C13.8689 12.2577 14.4881 14.3215 14.2129 15.6285C14.0753 16.1789 13.7313 16.9012 13.3186 17.5547C13.2842 17.6579 13.2154 17.7611 13.1466 17.8298C13.1122 17.8642 13.0778 17.8986 13.009 17.8986H8.40001C8.29683 17.8642 8.22803 17.7267 8.29683 17.6235Z" fill="white"/>
</svg>
