<svg width="34" height="34" viewBox="0 0 34 34" fill="none" xmlns="http://www.w3.org/2000/svg">
<path d="M17.0007 0C7.61148 0 0 7.61286 0 17.0007C0 26.3899 7.61148 34 17.0007 34C26.3899 34 34 26.3899 34 17.0007C34 7.61286 26.3892 0 17.0007 0ZM25.5642 13.5729C25.5732 13.7566 25.5766 13.9409 25.5766 14.1273C25.5766 19.7891 21.2673 26.3167 13.3872 26.3167C10.9681 26.3167 8.7154 25.6077 6.81961 24.3926C7.15513 24.432 7.49549 24.452 7.84137 24.452C9.84901 24.452 11.6965 23.7671 13.1622 22.6183C11.2878 22.5831 9.7061 21.3439 9.1607 19.6421C9.42166 19.6932 9.69022 19.7187 9.96638 19.7187C10.3571 19.7187 10.7355 19.6676 11.0952 19.5689C9.13446 19.1754 7.65773 17.4425 7.65773 15.3686C7.65773 15.35 7.65773 15.332 7.65842 15.3134C8.23558 15.6344 8.89628 15.827 9.59909 15.8498C8.44891 15.08 7.69294 13.7704 7.69294 12.2833C7.69294 11.4983 7.9042 10.7617 8.27286 10.1293C10.3861 12.721 13.5433 14.4269 17.1042 14.6051C17.0311 14.2923 16.9931 13.9644 16.9931 13.6289C16.9931 11.2636 18.911 9.34503 21.2776 9.34503C22.5099 9.34503 23.6228 9.86558 24.4044 10.6975C25.3806 10.5063 26.2974 10.1486 27.1252 9.65777C26.8041 10.6588 26.1255 11.4983 25.2404 12.0279C26.1082 11.9243 26.9339 11.6937 27.7016 11.3534C27.1286 12.2143 26.4016 12.9689 25.5642 13.5729Z" fill="white"/>
</svg>
