<svg width="28" height="30" viewBox="0 0 28 30" fill="none" xmlns="http://www.w3.org/2000/svg">
<path d="M23.0442 20C21.0619 20 19.3522 21.2 18.5593 22.9L9.68849 16.425C9.81239 15.975 9.9115 15.5 9.9115 15C9.9115 14.5 9.81239 14.025 9.68849 13.575L18.5593 7.1C18.9911 8.02579 19.6948 8.8033 20.5664 9.31946C21.2952 9.75111 22.1415 10 23.0442 10C25.7699 10 28 7.75 28 5C28 2.25 25.7699 0 23.0442 0C20.5416 0 18.485 1.875 18.1628 4.3L8.42478 11.425C7.50796 10.55 6.29381 10 4.95575 10C2.23009 10 0 12.25 0 15C0 17.75 2.23009 20 4.95575 20C6.29381 20 7.50796 19.45 8.42478 18.575L18.1628 25.7C18.485 28.125 20.5416 30 23.0442 30C25.7699 30 28 27.75 28 25C28 22.25 25.7699 20 23.0442 20ZM23.0442 2.5C24.4071 2.5 25.5221 3.625 25.5221 5C25.5221 6.375 24.4071 7.5 23.0442 7.5C21.6814 7.5 20.5664 6.375 20.5664 5C20.5664 3.625 21.6814 2.5 23.0442 2.5ZM4.95575 17.5C3.59292 17.5 2.47788 16.375 2.47788 15C2.47788 13.625 3.59292 12.5 4.95575 12.5C6.31858 12.5 7.43363 13.625 7.43363 15C7.43363 16.375 6.31858 17.5 4.95575 17.5ZM23.0442 27.5C21.6814 27.5 20.5664 26.375 20.5664 25C20.5664 23.625 21.6814 22.5 23.0442 22.5C24.4071 22.5 25.5221 23.625 25.5221 25C25.5221 26.375 24.4071 27.5 23.0442 27.5Z" fill="white"/>
</svg>
