<svg width="198" height="82" viewBox="0 0 198 82" fill="none" xmlns="http://www.w3.org/2000/svg">
<path d="M39.1214 23.5976C39.1214 26.8427 38.5309 29.8473 37.3021 32.6838C36.0095 35.5763 34.3658 38.0522 32.2514 40.2316C30.1369 42.3549 27.6076 44.0615 24.7351 45.3035C21.9185 46.5454 18.8625 47.1944 15.631 47.1944H0L7.81151 39.2941H15.623C17.7933 39.2941 19.8519 38.8774 21.735 38.1163C23.618 37.291 25.3176 36.1692 26.7299 34.6949C28.1422 33.2206 29.2592 31.57 30.0811 29.6791C30.9029 27.732 31.3178 25.7289 31.3178 23.6056C31.3178 21.4823 30.9029 19.4792 30.0811 17.5321C29.2592 15.6412 28.1422 13.9906 26.674 12.5163C25.2617 11.0981 23.5622 9.92026 21.6791 9.09497C19.7961 8.32577 17.7454 7.91713 15.631 7.91713H7.81949L0.00797925 0.0168076H15.631C18.8625 0.0168076 21.8547 0.665821 24.7351 1.90776C27.5517 3.1497 30.0811 4.85636 32.1955 6.97967C34.3658 9.15907 36.0095 11.6429 37.3021 14.5274C38.5389 17.3559 39.1214 20.3686 39.1214 23.6136V23.5976Z" fill="white"/>
<path d="M91.752 6.96286C96.3958 11.562 98.7416 17.1067 98.7416 23.5968C98.7416 30.0869 96.3958 35.6877 91.752 40.2308C87.172 44.8299 81.7063 47.1936 75.1874 47.1936C68.6685 47.1936 63.2029 44.838 58.6229 40.2308C54.0429 35.6316 51.6891 30.143 51.6891 23.5968C51.6891 17.0506 54.0349 11.562 58.6229 6.96286C63.147 2.36369 68.6685 0 75.1874 0C81.7063 0 87.172 2.35568 91.752 6.96286ZM64.0886 12.5075C61.0326 15.5763 59.5644 19.2941 59.5644 23.5968C59.5644 27.8995 61.0326 31.6814 64.0886 34.7422C67.1445 37.811 70.9027 39.2853 75.1874 39.2853C79.4722 39.2853 83.1745 37.811 86.2305 34.7422C89.3423 31.6173 90.8104 27.8995 90.8104 23.5968C90.8104 19.2941 89.2864 15.5763 86.2305 12.5075C83.1745 9.43872 79.4722 7.90833 75.1874 7.90833C70.9027 7.90833 67.2004 9.38264 64.0886 12.5075Z" fill="white"/>
<path d="M191.01 6.96286C195.654 11.562 198 17.1067 198 23.5968C198 30.0869 195.654 35.6877 191.01 40.2308C186.43 44.8299 180.965 47.1936 174.446 47.1936C167.927 47.1936 162.461 44.838 157.881 40.2308C153.301 35.6316 150.947 30.143 150.947 23.5968C150.947 17.0506 153.293 11.562 157.881 6.96286C162.405 2.36369 167.927 0 174.446 0C180.965 0 186.43 2.35568 191.01 6.96286ZM163.347 12.5075C160.291 15.5763 158.823 19.2941 158.823 23.5968C158.823 27.8995 160.291 31.6814 163.347 34.7422C166.403 37.811 170.161 39.2853 174.446 39.2853C178.731 39.2853 182.433 37.811 185.489 34.7422C188.601 31.6173 190.069 27.8995 190.069 23.5968C190.069 19.2941 188.545 15.5763 185.489 12.5075C182.433 9.43872 178.731 7.90833 174.446 7.90833C170.161 7.90833 166.459 9.38264 163.347 12.5075Z" fill="white"/>
<path d="M120.994 23.5968L144.492 47.1936H133.449L113.127 26.906L109.839 23.6609L113.127 20.3598L133.449 0.0080081H144.492L120.994 23.6048V23.5968Z" fill="white"/>
<path d="M17.1066 66.1032L10.3004 81.7916H7.44394L0.613861 66.1032H3.75761L8.95996 78.2101L14.2022 66.1032H17.1066Z" fill="white"/>
<path d="M59.4903 79.3478V81.7916H47.769V66.1032H59.1711V68.547H50.6654V72.6253H58.2057V75.0211H50.6654V79.3478H59.4823H59.4903Z" fill="white"/>
<path d="M101.963 81.7917L98.7713 77.2005C98.5719 77.2246 98.3724 77.2246 98.1649 77.2246H94.6382V81.7997H91.7338V66.1112H98.1649C102.274 66.1112 104.819 68.2185 104.819 71.696C104.819 74.0677 103.615 75.8224 101.492 76.6477L105.083 81.7997H101.955L101.963 81.7917ZM98.0373 68.5711H94.6462V74.8208H98.0373C100.583 74.8208 101.899 73.659 101.899 71.6799C101.899 69.7008 100.583 68.5631 98.0373 68.5631V68.5711Z" fill="white"/>
<path d="M135.753 80.1331L136.759 77.8656C138.011 78.8751 139.998 79.5883 141.913 79.5883C144.347 79.5883 145.376 78.7149 145.376 77.5451C145.376 74.1638 136.088 76.3833 136.088 70.5502C136.088 68.0182 138.099 65.8628 142.384 65.8628C144.259 65.8628 146.222 66.3596 147.586 67.249L146.669 69.5165C145.264 68.6832 143.724 68.2826 142.36 68.2826C139.95 68.2826 138.969 69.2281 138.969 70.4139C138.969 73.7552 148.232 71.5758 148.232 77.3367C148.232 79.8447 146.198 82 141.913 82C139.479 82 137.046 81.2388 135.753 80.1171V80.1331Z" fill="white"/>
<path d="M191.847 79.3478V81.7916H180.126V66.1032H191.528V68.547H183.022V72.6253H190.562V75.0211H183.022V79.3478H191.839H191.847Z" fill="white"/>
</svg>
