<svg width="32" height="32" viewBox="0 0 32 32" fill="none" xmlns="http://www.w3.org/2000/svg">
<path d="M16.0079 30.6359C24.3579 30.6359 31.1269 24.0346 31.1269 15.8914C31.1269 7.74823 24.3579 1.14688 16.0079 1.14688C7.65792 1.14688 0.888916 7.74823 0.888916 15.8914C0.888916 24.0346 7.65792 30.6359 16.0079 30.6359Z" stroke="white" stroke-width="1.5" stroke-miterlimit="10" stroke-linecap="round" stroke-linejoin="round"/>
<path d="M16.0079 30.6359C20.2198 30.6359 23.6342 24.0346 23.6342 15.8914C23.6342 7.74823 20.2198 1.14688 16.0079 1.14688C11.7959 1.14688 8.38147 7.74823 8.38147 15.8914C8.38147 24.0346 11.7959 30.6359 16.0079 30.6359Z" stroke="white" stroke-width="1.5" stroke-miterlimit="10" stroke-linecap="round" stroke-linejoin="round"/>
<path d="M28.8523 8.45391H3.16345" stroke="white" stroke-width="1.5" stroke-miterlimit="10" stroke-linecap="round" stroke-linejoin="round"/>
<path d="M28.8523 23.3289H3.16345" stroke="white" stroke-width="1.5" stroke-miterlimit="10" stroke-linecap="round" stroke-linejoin="round"/>
<path d="M16.0078 30.6359V1.27739" stroke="white" stroke-width="1.5" stroke-miterlimit="10" stroke-linecap="round" stroke-linejoin="round"/>
</svg>
