<svg width="34" height="34" viewBox="0 0 34 34" fill="none" xmlns="http://www.w3.org/2000/svg">
<path fill-rule="evenodd" clip-rule="evenodd" d="M17 0C26.3825 0 34 7.61746 34 17C34 26.3825 26.3825 34 17 34C7.61746 34 0 26.3825 0 17C0 7.61746 7.61746 0 17 0ZM27.1811 11.8853C26.9367 10.9709 26.2167 10.251 25.3024 10.0066C23.6451 9.5625 17 9.5625 17 9.5625C17 9.5625 10.3549 9.5625 8.69756 10.0066C7.78348 10.251 7.0633 10.9709 6.81893 11.8853C6.375 13.5424 6.375 17.0001 6.375 17.0001C6.375 17.0001 6.375 20.4577 6.81893 22.1147C7.0633 23.0291 7.78348 23.7493 8.69756 23.9936C10.3549 24.4375 17 24.4375 17 24.4375C17 24.4375 23.6451 24.4375 25.3024 23.9936C26.2167 23.7493 26.9367 23.0291 27.1811 22.1147C27.625 20.4577 27.625 17.0001 27.625 17.0001C27.625 17.0001 27.625 13.5424 27.1811 11.8853ZM14.8749 20.1877V13.8126L20.3957 17.0001L14.8749 20.1877Z" fill="white"/>
</svg>
